PathFileType	4	(X/Y/Z)	C:/Users/beibeiliu/ov580/test_trc/User3\sequence.7_training_dense_left.trc
DataRate	CameraRate	NumFrames	NumMarkers	Units	OrigDataRate	OrigDataStartFrame	OrigNumFrames
120	120	23	19	mm	120	176	200
Frame#	Time	ThumbCMC			ThumbMCP			ThumbIP			ThumbTip			IndexMCP			IndexPIP			IndexTip			MiddleMCP			MiddlePIP			MiddleTip			RingMCP			RingPIP			RingTip			PinkyMCP			PinkyPIP			PinkyTip			BackHand1			BackHand2			BackHand3	
		X0	Y0	Z0	X1	Y1	Z1	X2	Y2	Z2	X3	Y3	Z3	X4	Y4	Z4	X5	Y5	Z5	X6	Y6	Z6	X7	Y7	Z7	X8	Y8	Z8	X9	Y9	Z9	X10	Y10	Z10	X11	Y11	Z11	X12	Y12	Z12	X13	Y13	Z13	X14	Y14	Z14	X15	Y15	Z15	X16	Y16	Z16	X17	Y17	Z17	X18	Y18	Z18	
175	1.45833	-143.567	-47.6002	8.4485	-128.527	-67.3094	-16.2814	-125.299	-83.1451	-39.7821	-128.536	-98.8928	-59.4458	-158.15	-29.2672	-67.5182	-151.564	-41.0635	-95.1967	-157.428	-69.2352	-110.126	-181.499	-18.5332	-72.5005	-182.952	-29.4665	-101.031	-189.256	-65.8582	-117.543	-203.808	-21.7026	-62.4731	-208.087	-35.8938	-89.879	-213.18	-62.9	-97.2584	-227.426	-26.5034	-45.438	-234.187	-39.824	-66.185	-233.226	-67.696	-75.171	-195.561	-12.17	-7.65387	-193.754	-11.0108	17.606	-162.384	-16.3698	1.20819	
176	1.46667	-135.023	-55.585	10.0774	-120.236	-79.7882	-2.57055	-113.211	-101.709	-18.5861	-115.696	-121.455	-33.5371	-146.872	-59.2744	-64.3745	-143.778	-82.7191	-88.7363	-144.882	-108.888	-92.985	-170.012	-52.065	-73.5193	-167.197	-71.8107	-96.1339	-172.197	-111.693	-103.129	-194.31	-53.8437	-63.5826	-200.246	-74.6879	-84.0364	-199.309	-109.234	-80.887	-213.246	-54.7726	-47.9462	-224.212	-78.5904	-61.8417	-219.913	-104.656	-57.814	-189.939	-25.4655	-15.9682	-189.456	-16.6404	9.70682	-154.406	-26.2042	-6.44823	
177	1.475	-126.58	-48.8251	17.063	-108.783	-74.6964	10.8368	-97.5954	-96.6547	2.28735	-97.974	-122.68	-9.98037	-131.729	-77.4041	-58.033	-125.734	-103.315	-72.1248	-121.789	-134.352	-65.1072	-158.858	-75.8095	-63.7725	-152.062	-105.663	-83.5154	-150.245	-139.173	-75.931	-178.683	-81.8508	-57.7285	-181.674	-108.457	-68.6558	-175.017	-139.913	-53.3939	-205.537	-82.1156	-37.233	-206.278	-110.415	-45.4791	-194.052	-133.829	-29.6864	-187.337	-42.2344	-22.2297	-193.016	-25.3126	6.67455	-155.984	-29.5901	-7.06729	
178	1.48333	-130.139	-36.0764	20.1238	-109.019	-57.2906	17.7828	-83.0566	-76.1344	16.3244	-77.2693	-100.737	13.8071	-122.16	-77.4013	-44.3403	-107.29	-104.924	-55.6074	-92.4181	-130.57	-37.8022	-140.449	-88.3421	-56.3845	-125.174	-117.124	-63.6902	-114.232	-145.028	-44.5128	-162.734	-97.9043	-44.6453	-155.536	-130.186	-47.7399	-139.278	-147.285	-26.0213	-186.698	-108.218	-27.6085	-175.359	-129.877	-25.7745	-157.376	-140.881	-3.79552	-187.817	-58.6108	-18.7308	-195.235	-37.4817	0.228251	-160.028	-31.425	-8.54352	
179	1.49167	-148.362	-18.7473	20.1568	-119.081	-24.2107	21.5857	-89.183	-36.8798	18.78	-76.2175	-56.1995	19.9511	-117.696	-65.232	-42.2544	-92.4833	-76.8837	-47.4204	-74.9132	-95.0998	-27.8114	-131.571	-80.389	-45.6885	-105.422	-98.9528	-51.9688	-83.9781	-116.024	-25.3763	-147.885	-101.473	-32.1563	-123.451	-119.258	-33.961	-103.054	-126.39	-6.65392	-160.063	-115.859	-13.5768	-137.115	-128.424	-6.68259	-121.991	-125.193	16.2181	-187.27	-69.2946	-11.4451	-203.355	-51.9636	6.46919	-176.267	-33.9944	-6.6948	
180	1.5	-177.65	-5.63256	11.8972	-150.96	8.65841	10.812	-115.715	13.165	4.56091	-94.7173	-3.972	6.98209	-133.428	-39.341	-42.922	-99.1029	-38.2631	-49.7592	-75.6358	-31.8551	-31.0215	-129.806	-57.5912	-47.9162	-96.7588	-59.2518	-51.5458	-71.5187	-56.0708	-24.7146	-131.563	-81.9584	-31.4302	-104.838	-82.0438	-32.5678	-81.9118	-74.7119	-6.29777	-135.834	-93.2384	-8.375	-111.038	-95.2632	-2.23253	-95.8477	-81.7114	17.2193	-183.072	-68.6628	-10.5816	-205.665	-67.7398	6.55736	-192.583	-38.7633	-6.33507	
181	1.50833	-204.126	-5.44562	6.07292	-187.032	23.8544	-2.87514	-165.198	40.1236	-9.83421	-136.158	39.277	-11.8843	-153.293	-16.0326	-55.0183	-129.847	-2.98041	-62.408	-107.053	19.091	-46.7721	-143.568	-37.6288	-52.5046	-118.277	-22.4967	-63.6448	-88.4112	-3.41244	-42.1617	-134.739	-56.0523	-31.7081	-104.264	-42.2413	-38.8051	-88.6764	-24.2418	-23.1633	-129.468	-68.2791	-6.54286	-104.715	-52.5573	-10.014	-92.8604	-32.1827	5.90098	-181.523	-65.5244	-8.56744	-201.416	-71.3855	15.5609	-201.768	-43.4926	-10.1596	
182	1.51667	-222.319	-15.3996	6.71314	-217.696	16.7903	-9.21972	-204.1	41.3391	-23.1436	-183.761	52.7327	-28.3413	-179.015	-14.5662	-60.7319	-163.494	7.13073	-76.0699	-146.983	36.2007	-69.309	-160.219	-29.5329	-61.0188	-138.18	-6.92767	-77.4517	-122.327	19.533	-69.1533	-143.613	-36.3353	-45.1462	-121.105	-19.1816	-54.2732	-107.226	9.34413	-43.291	-128.731	-44.392	-17.7976	-109.148	-28.618	-19.7208	-106.212	1.2342	-13.096	-175.923	-62.8624	-5.97906	-192.74	-71.668	18.7782	-208.149	-50.1216	-6.42861	
183	1.525	-227.382	-28.0766	4.81418	-234.179	1.64882	-13.2185	-230.305	24.4462	-32.0751	-209.76	37.4235	-43.9088	-194.529	-29.5681	-68.4526	-190.488	-3.26155	-90.4922	-183.177	22.7126	-90.5044	-173.2	-41.5516	-65.7908	-161.882	-17.9853	-92.8656	-151.614	16.0265	-92.9347	-154.348	-41.6841	-52.72	-136.972	-22.2098	-71.048	-132.874	7.27319	-71.0675	-135.766	-40.4288	-28.2517	-124.161	-19.2923	-41.8563	-120.96	6.36589	-42.7699	-178.219	-64.9073	-7.03727	-181.381	-74.3364	20.2031	-208.486	-61.1196	-2.28586	
184	1.53333	-231.681	-38.9525	3.67686	-240.634	-14.6226	-15.1692	-239.602	3.46615	-38.0036	-228.823	16.5731	-53.5098	-209.448	-53.9879	-67.6698	-210.055	-37.4207	-93.6542	-202.678	-9.79695	-103.031	-185.279	-62.9694	-72.7763	-185.175	-49.5006	-99.3278	-177.462	-14.9327	-110.941	-163.736	-60.5702	-61.2879	-156.631	-45.0436	-83.6168	-151.65	-12.2733	-90.2166	-144.355	-51.3977	-41.6312	-136.971	-33.7261	-59.4363	-134.586	-7.08047	-61.9069	-177.576	-75.6042	-8.513	-180.298	-76.3173	21.8092	-209.779	-72.3678	-1.04973	
185	1.54167	-234.905	-47.692	9.38866	-244.67	-29.266	-16.0265	-248.492	-15.9656	-43.3433	-234.593	-8.12383	-62.5879	-225.11	-79.9414	-62.9236	-227.438	-70.6761	-90.1769	-222.826	-45.1776	-105.317	-205.544	-90.2402	-64.9505	-201.819	-82.3699	-95.1283	-197.097	-51.6184	-113.913	-180.107	-83.8112	-55.0267	-176.086	-77.9838	-84.5181	-172.114	-46.8562	-97.8134	-160.144	-72.5619	-41.7414	-149.046	-57.817	-66.9343	-151.658	-35.4462	-75.7607	-185.14	-88.5816	-3.99534	-184.643	-84.3484	22.7452	-216.319	-82.8084	6.73351	
186	1.55	-244.554	-58.7017	16.2239	-253.536	-45.9161	-13.1899	-261.614	-36.9652	-40.5144	-250.827	-35.3652	-63.1134	-242.896	-106.256	-43.49	-250.923	-104.478	-78.9582	-248.323	-85.1793	-96.0594	-220.94	-118.215	-46.549	-227.805	-118.96	-82.566	-222.874	-93.1549	-106.49	-200.876	-114.471	-48.4079	-195.324	-112.019	-77.6109	-192.78	-83.4268	-95.9003	-171.875	-100.836	-40.6207	-171.254	-95.0616	-64.4387	-175.774	-71.3452	-81.9793	-191.353	-104.1	7.0169	-190.544	-97.0603	32.2371	-226.113	-93.6147	22.2165	
187	1.55833	-247.337	-69.6115	21.182	-259.343	-62.0078	-7.64968	-271.667	-57.7458	-37.1481	-266.485	-62.6204	-62.1734	-264.355	-129.519	-27.2304	-276.822	-133.032	-53.9874	-271.24	-112.025	-82.0447	-248.807	-143.204	-29.3476	-252.647	-150.289	-60.792	-249.119	-128.421	-88.6906	-225.067	-140.965	-31.8112	-225.475	-143.894	-61.186	-220.143	-123.7	-83.3312	-192.832	-130.019	-31.0407	-191.688	-127.824	-57.1546	-195.446	-107.775	-76.1682	-212.519	-120.93	15.2461	-198.755	-107.682	39.4288	-234.221	-106.939	31.0769	
188	1.56667	-255.383	-71.0401	24.2533	-268.774	-64.4867	-6.5587	-279.972	-64.1251	-34.6763	-273.563	-74.3049	-59.0977	-283.469	-133.207	-12.738	-297.377	-138.101	-40.5364	-287.842	-122.662	-69.3141	-264.578	-150.189	-13.2356	-278.675	-158.684	-44.3326	-270.663	-137.198	-78.9725	-243.093	-153.313	-18.9785	-246.336	-158.907	-49.3604	-242.055	-137.002	-73.4462	-216.611	-146.89	-23.118	-213.271	-147.442	-46.2702	-212.527	-130.335	-67.627	-224.032	-133.405	25.4489	-210.382	-112.862	49.3363	-247.305	-109.922	38.9243	
189	1.575	-255.279	-61.9419	23.17	-263.79	-57.031	-7.05675	-274.633	-49.0812	-34.6527	-272.925	-61.4522	-61.5552	-297.646	-114.132	-8.36229	-311.771	-118.422	-39.9981	-300.125	-105.186	-65.7516	-286.076	-136.843	-10.09	-297.291	-145.316	-41.2567	-282.03	-128.387	-74.0346	-266.941	-144.656	-15.5805	-266.262	-151.774	-48.0417	-256.549	-131.261	-71.3502	-235.691	-148.133	-18.3307	-236.467	-146.903	-41.6269	-230.978	-130.037	-65.0801	-240.925	-124.716	32.8412	-222.385	-112.818	53.1407	-256.468	-96.3676	41.0956	
190	1.58333	-245.9	-40.5704	21.5157	-250.328	-31.7961	-11.2692	-256.529	-24.769	-39.0854	-256.633	-35.5492	-62.9641	-300.302	-78.1413	-13.7272	-312.101	-79.3004	-44.2481	-294.182	-68.1067	-71.39	-299.707	-102.438	-15.7926	-310.713	-102.024	-49.7921	-287.764	-95.4789	-77.18	-278.203	-119.853	-17.6882	-285.337	-120.121	-48.7799	-263.723	-109.884	-72.7157	-254.004	-127.567	-15.4835	-255.685	-128.34	-44.3141	-243.013	-113.248	-67.094	-254.674	-111.059	25.9965	-235.63	-104.327	48.3916	-258.606	-73.507	41.4526	
191	1.59167	-227.232	-22.156	18.6166	-222.313	-9.35947	-8.61631	-223.421	-1.09204	-36.4218	-228.248	-11.6646	-62.2663	-289.414	-28.8133	-21.365	-297.654	-20.8929	-52.6542	-278.67	-23.1403	-76.4775	-297.519	-51.1943	-22.6878	-305.966	-49.1528	-54.5503	-278.023	-48.9556	-84.2531	-288.772	-70.5275	-24.7641	-289.961	-75.2851	-55.8126	-265.991	-73.4241	-76.4005	-269.164	-91.5871	-21.2592	-270.241	-95.2036	-47.5298	-249.359	-84.029	-67.5221	-263.892	-78.7125	23.7733	-245.546	-80.4195	45.5217	-252.125	-48.0231	37.176	
192	1.6	-198.99	-5.32307	18.3993	-191.203	5.08081	-11.8629	-190.069	10.7089	-40.0889	-193.144	4.79571	-67.6508	-260.7	16.4127	-27.5896	-264.412	22.9753	-55.5907	-243.969	18.235	-82.8915	-275.592	-2.98986	-27.0251	-281.699	3.37068	-60.2913	-260.122	-6.35181	-89.3148	-278.529	-26.7412	-30.3352	-281.245	-25.3072	-61.4255	-256.543	-30.8063	-82.8808	-271.921	-56.0445	-25.306	-273.508	-56.5269	-52.1224	-252.412	-57.9286	-73.4045	-258.11	-42.1331	20.6075	-241.617	-49.668	44.7681	-236.625	-16.984	32.5186	
193	1.60833	-175.239	-4.48304	17.2108	-164.689	-0.96326	-13.4556	-158.346	5.45371	-44.2504	-159.566	1.9165	-68.3356	-222.333	37.4423	-36.0206	-219.322	45.0354	-64.4424	-210.634	31.2116	-91.6177	-244.393	28.5267	-37.5353	-247.284	34.3303	-66.8399	-232.45	15.6006	-96.6536	-257.513	4.72289	-37.1973	-257.896	7.07327	-67.037	-244.195	-7.82594	-88.0511	-258.224	-21.8974	-28.35	-264.212	-24.4031	-56.9911	-243.954	-35.2523	-79.7674	-246.419	-14.5459	11.7549	-238.417	-28.5026	40.022	-214.291	1.74925	26.2141	
194	1.61667	-160.089	-12.8713	10.3732	-142.836	-13.273	-15.9821	-135.739	-14.5292	-42.157	-141.567	-17.1716	-68.6245	-190.572	32.513	-44.2475	-183.974	37.4968	-76.5463	-176.769	24.2394	-97.6789	-212.578	31.2239	-44.3057	-213.636	35.874	-78.648	-207.063	13.6788	-104.001	-231.688	12.0176	-39.978	-235.482	14.7416	-70.4999	-222.156	-7.14293	-95.6877	-243.396	-11.2864	-32.3286	-245.924	-12.5706	-62.0953	-233.355	-28.0247	-81.8376	-227.13	-4.39989	9.23176	-221.656	-17.5694	34.9619	-194.663	2.6518	22.5678	
195	1.625	-146.017	-28.7022	14.1521	-131.094	-34.689	-12.0727	-120.4	-37.8304	-42.0018	-123.014	-46.3475	-64.0391	-165.305	13.7129	-48.3709	-159.786	14.3551	-83.7494	-155.495	-3.91163	-104.032	-190.045	18.0462	-52.7003	-191.081	19.0066	-82.9315	-183.844	-10.8119	-110.962	-213.499	2.81634	-45.3949	-216.628	2.88253	-75.7025	-210.204	-20.5111	-96.6835	-227.505	-14.5329	-36.7137	-231.76	-16.5514	-60.624	-220.998	-37.966	-81.0227	-209.341	-4.2734	4.79975	-207	-13.5555	30.4281	-177.55	-1.19728	14.5658	
196	1.63333	-139.602	-42.4473	15.8044	-122.729	-54.4597	-5.84847	-111.114	-65.1611	-32.7394	-114.365	-74.3988	-61.1911	-149.162	-9.44172	-52.5621	-145.527	-13.119	-82.1914	-144.611	-34.449	-105.424	-174.828	-3.9245	-54.7125	-174.83	-8.84254	-90.4516	-168.873	-39.4185	-113.187	-197.799	-11.3015	-49.7795	-196.924	-17.7778	-81.4292	-195.73	-44.0705	-96.4354	-215.06	-26.4437	-36.1612	-221.274	-31.945	-62.1894	-216.265	-56.8662	-77.0228	-198.601	-13.6204	2.51012	-198.488	-16.8803	31.6486	-161.947	-13.8282	16.2651	
197	1.64167	-128.947	-54.1501	19.373	-116.528	-70.6027	0.0231834	-107.528	-83.9962	-28.2065	-107.803	-97.4544	-49.9602	-139.954	-29.7665	-55.1416	-136.828	-39.2865	-85.264	-135.061	-59.5307	-101.878	-167.396	-22.6887	-56.9557	-161.011	-29.8746	-88.0546	-162.462	-63.7072	-110.917	-187.496	-27.8428	-49.8936	-188.673	-36.4489	-79.1656	-192.358	-65.523	-91.4697	-207.847	-39.2571	-35.4743	-214.647	-49.0509	-59.8908	-211.766	-72.6148	-72.7393	-187.804	-24.0291	0.578122	-189.643	-26.2258	33.1853	-156.684	-24.9976	12.4593	
